<?xml version="1.0" standalone="no"?>
<!DOCTYPE svg PUBLIC "-//W3C//DTD SVG 20010904//EN"
 "http://www.w3.org/TR/2001/REC-SVG-20010904/DTD/svg10.dtd">
<svg version="1.0" xmlns="http://www.w3.org/2000/svg"
 width="1118.000000pt" height="926.000000pt" viewBox="0 0 1118.000000 926.000000"
 preserveAspectRatio="xMidYMid meet">

<g transform="translate(0.000000,926.000000) scale(0.100000,-0.100000)"
fill="#000000" stroke="none">
<path d="M0 4630 l0 -4630 35 0 35 0 0 3065 0 3065 4665 0 4665 0 0 720 0 720
780 0 780 0 0 -3600 0 -3600 -3890 0 -3890 0 0 -185 0 -185 4000 0 4000 0 0
4630 0 4630 -5590 0 -5590 0 0 -4630z m1110 4187 l0 -52 44 3 c37 3 49 -1 75
-25 53 -47 56 -156 5 -207 -24 -23 -33 -25 -110 -25 l-84 0 0 173 c0 95 3 176
7 179 3 4 19 7 35 7 27 0 28 -2 28 -53z m920 -126 l0 -179 -84 -1 c-82 0 -86
1 -110 30 -48 57 -46 150 5 201 25 26 35 29 74 26 l45 -3 0 52 0 53 35 0 35 0
0 -179z m1733 165 c44 -18 95 -78 103 -121 11 -60 -4 -106 -50 -151 -72 -72
-160 -72 -232 0 -67 67 -72 154 -11 223 53 60 122 78 190 49z m470 0 c44 -18
95 -78 103 -121 11 -60 -4 -106 -50 -151 -72 -72 -160 -72 -232 0 -67 67 -72
154 -11 223 53 60 122 78 190 49z m-3938 -18 c47 -21 70 -74 70 -158 0 -120
-42 -170 -144 -170 -86 0 -131 58 -131 170 0 112 45 170 131 170 26 0 60 -5
74 -12z m2309 -14 c18 -19 26 -37 26 -61 0 -44 -11 -65 -77 -140 l-55 -63 76
0 c74 0 76 -1 76 -25 l0 -25 -120 0 c-115 0 -120 1 -120 21 0 12 29 52 66 92
75 82 98 120 89 147 -14 44 -82 36 -92 -11 -4 -24 -10 -29 -34 -29 -26 0 -29
4 -29 31 0 20 10 40 29 60 25 25 37 29 84 29 45 0 59 -4 81 -26z m248 1 c29
-29 38 -63 38 -145 0 -125 -29 -170 -111 -170 -68 0 -96 27 -111 106 -16 88
-3 170 32 206 24 23 37 28 78 28 39 0 54 -5 74 -25z m228 -145 l0 -170 -35 0
-35 0 0 131 c0 127 -1 131 -20 125 -11 -3 -29 -9 -40 -12 -17 -5 -20 -2 -20
23 0 26 5 31 58 50 98 37 92 47 92 -147z m259 154 c74 -52 65 -248 -13 -299
-15 -10 -46 -20 -71 -23 -45 -5 -45 -4 -45 27 0 29 2 31 35 31 32 0 75 27 75
48 0 4 -20 6 -45 4 -39 -4 -49 0 -75 26 -26 27 -30 37 -30 87 0 49 4 60 29 86
24 23 38 29 73 29 24 0 54 -7 67 -16z m-2611 -36 c2 -20 9 -28 23 -28 14 0 19
-7 19 -25 0 -18 -5 -25 -20 -25 -18 0 -20 -7 -20 -80 0 -73 2 -80 20 -80 15 0
20 -7 20 -26 0 -23 -3 -25 -42 -22 -55 4 -68 28 -68 131 0 70 -2 77 -20 77
-15 0 -20 7 -20 25 0 18 5 25 20 25 14 0 20 7 20 23 0 31 9 39 40 35 19 -2 26
-10 28 -30z m-260 -131 c3 -107 11 -120 58 -99 23 11 24 16 24 107 l0 95 30 0
30 0 0 -129 0 -129 -79 -1 c-118 -1 -125 7 -129 149 l-4 111 34 -3 33 -3 3
-98z m394 7 c2 -79 6 -99 21 -108 12 -8 22 -8 35 0 14 9 18 29 20 108 l3 96
34 0 35 0 0 -130 0 -130 -82 0 c-70 0 -85 3 -105 22 -21 20 -23 30 -23 130 l0
108 30 0 29 0 3 -96z m576 64 c3 -25 0 -28 -25 -28 -46 0 -53 -15 -53 -112 l0
-88 -30 0 -30 0 0 130 0 130 68 -3 c65 -2 67 -3 70 -29z m198 -2 c31 -31 34
-39 34 -96 0 -57 -3 -65 -34 -96 -30 -30 -41 -34 -84 -34 -60 0 -94 27 -113
89 -26 87 31 171 118 171 38 0 50 -5 79 -34z m595 24 c26 -15 49 -62 49 -105
l0 -35 -80 0 c-78 0 -79 0 -71 -22 15 -41 59 -47 103 -16 15 10 21 9 35 -5 17
-17 17 -19 -10 -43 -22 -19 -39 -24 -79 -24 -44 0 -54 4 -85 35 -34 34 -35 37
-31 101 4 60 7 70 36 95 35 31 94 39 133 19z m7969 -802 c0 -48 3 -59 12 -50
7 7 31 12 53 12 58 0 87 -32 93 -103 5 -59 -14 -109 -47 -127 -27 -14 -84 -13
-99 2 -9 9 -12 9 -12 0 0 -7 -11 -12 -25 -12 l-25 0 0 170 0 170 25 0 c24 0
25 -3 25 -62z m-2926 36 c8 -21 -1 -34 -24 -34 -22 0 -34 15 -26 35 7 20 42
19 50 -1z m2781 -14 c-16 -17 -39 -30 -53 -30 l-23 0 21 30 c16 22 29 30 53
30 l31 0 -29 -30z m-9500 -21 c37 -41 51 -96 40 -160 -5 -26 -19 -55 -40 -78
-32 -35 -36 -36 -114 -39 l-81 -4 0 162 0 162 81 -4 c78 -3 82 -4 114 -39z
m1724 14 c16 -16 32 -38 36 -50 10 -37 -36 -31 -57 7 -14 25 -23 30 -56 30
-43 0 -62 -14 -62 -45 0 -24 22 -39 80 -55 53 -14 100 -59 100 -95 0 -16 -12
-38 -29 -56 -25 -24 -37 -29 -81 -29 -56 0 -104 20 -120 49 -17 33 -12 51 15
51 14 0 25 -5 25 -12 0 -42 91 -66 124 -32 33 33 11 61 -68 88 -66 21 -96 51
-96 92 0 78 126 116 189 57z m1599 10 c-2 -14 -15 -19 -56 -21 l-52 -3 0 -140
0 -139 -25 0 -25 0 0 140 0 140 -50 0 c-43 0 -50 3 -50 20 0 19 7 20 131 20
119 0 130 -2 127 -17z m1377 5 c69 -31 95 -173 45 -252 l-23 -39 24 -18 c22
-17 23 -19 7 -35 -16 -16 -19 -15 -48 10 -21 17 -43 26 -66 26 -45 0 -86 21
-110 57 -27 40 -27 166 0 206 35 52 111 72 171 45z m1614 -13 c16 -14 35 -42
41 -61 18 -54 8 -148 -19 -185 l-22 -30 26 -21 c24 -19 25 -22 11 -36 -13 -14
-19 -12 -50 11 -24 19 -47 27 -75 27 -33 0 -49 7 -79 34 l-37 34 0 92 0 92 37
34 c32 29 45 34 87 34 38 0 56 -6 80 -25z m1440 -2 c16 -16 32 -38 36 -50 10
-37 -36 -31 -57 7 -14 25 -23 30 -56 30 -43 0 -62 -14 -62 -45 0 -24 22 -39
80 -55 53 -14 100 -59 100 -95 0 -16 -12 -38 -29 -56 -25 -24 -37 -29 -81 -29
-56 0 -104 20 -120 49 -17 33 -12 51 15 51 14 0 25 -5 25 -12 0 -42 91 -66
124 -32 33 33 11 61 -68 88 -66 21 -96 51 -96 92 0 78 126 116 189 57z m1520
0 c16 -16 32 -38 36 -50 10 -37 -36 -31 -57 7 -14 25 -23 30 -56 30 -43 0 -62
-14 -62 -45 0 -24 22 -39 80 -55 53 -14 100 -59 100 -95 0 -16 -12 -38 -29
-56 -25 -24 -37 -29 -81 -29 -56 0 -104 20 -120 49 -17 33 -12 51 15 51 14 0
25 -5 25 -12 0 -42 91 -66 124 -32 33 33 11 61 -68 88 -66 21 -96 51 -96 92 0
78 126 116 189 57z m-9007 -82 c31 -27 33 -34 33 -91 0 -57 -2 -64 -33 -91
-52 -47 -138 -35 -168 22 -17 35 -18 106 0 138 32 58 116 68 168 22z m128 19
c0 -7 6 -7 19 0 29 15 87 12 101 -5 12 -14 15 -14 36 0 35 22 97 19 120 -6 15
-17 20 -40 22 -120 l4 -99 -26 0 -26 0 0 88 c0 95 -7 112 -50 112 -43 0 -50
-17 -50 -112 0 -87 0 -88 -25 -88 -25 0 -25 1 -25 88 0 96 -7 112 -52 112 -38
0 -48 -24 -48 -119 0 -74 -2 -81 -20 -81 -19 0 -20 7 -20 120 0 113 1 120 20
120 11 0 20 -5 20 -10z m1574 -15 c24 -26 42 -87 31 -105 -3 -6 -40 -10 -81
-10 -78 0 -88 -7 -57 -42 20 -22 70 -24 93 -3 15 14 19 14 31 -1 32 -39 -72
-71 -136 -42 -35 16 -55 57 -55 110 1 76 40 117 113 118 28 0 44 -7 61 -25z
m207 15 c13 -7 19 -7 19 0 0 5 9 10 20 10 19 0 20 -7 20 -139 0 -136 0 -139
-26 -165 -31 -31 -87 -35 -134 -11 -33 17 -37 27 -16 44 10 9 16 8 26 -4 19
-23 76 -19 94 7 20 28 22 58 4 40 -7 -7 -29 -12 -51 -12 -29 0 -46 7 -68 29
-26 26 -29 36 -29 89 0 50 4 66 26 91 28 33 75 42 115 21z m1323 -15 c24 -26
42 -87 31 -105 -3 -6 -40 -10 -81 -10 -78 0 -88 -7 -57 -42 20 -22 70 -24 93
-3 15 14 19 14 31 -1 32 -39 -72 -71 -136 -42 -35 16 -55 57 -55 110 1 76 40
117 113 118 28 0 44 -7 61 -25z m116 13 c0 -9 3 -9 12 0 7 7 25 12 40 12 21 0
28 -5 28 -20 0 -14 -7 -20 -22 -20 -45 0 -58 -26 -58 -117 0 -76 -2 -83 -20
-83 -19 0 -20 7 -20 120 0 113 1 120 20 120 11 0 20 -5 20 -12z m1250 -62 c0
-98 11 -126 48 -126 45 0 52 16 52 112 0 87 0 88 25 88 l25 0 0 -118 0 -118
-75 -2 c-107 -2 -115 7 -115 138 0 93 1 100 20 100 18 0 20 -7 20 -74z m370
54 c16 -16 20 -33 20 -89 0 -38 3 -83 6 -100 6 -28 4 -31 -20 -31 -14 0 -26 5
-26 10 0 7 -6 7 -19 0 -32 -17 -85 -12 -109 10 -29 27 -28 65 3 95 19 20 34
25 75 25 52 0 58 6 40 41 -13 23 -57 25 -81 3 -9 -8 -28 -14 -41 -12 -23 3
-23 3 9 36 26 27 39 32 77 32 33 0 52 -6 66 -20z m1230 -64 c0 -106 4 -116 44
-116 49 0 56 14 56 112 0 87 0 88 25 88 l25 0 0 -120 0 -120 -25 0 c-14 0 -25
5 -25 12 0 9 -3 9 -12 0 -7 -7 -31 -12 -53 -12 -66 0 -79 22 -83 141 l-4 99
26 0 c26 0 26 0 26 -84z m250 -36 c0 -113 -1 -120 -20 -120 -19 0 -20 7 -20
120 0 113 1 120 20 120 19 0 20 -7 20 -120z m1284 95 c24 -26 42 -87 31 -105
-3 -6 -40 -10 -81 -10 -78 0 -88 -7 -57 -42 20 -22 70 -24 93 -3 15 14 19 14
31 -1 32 -39 -72 -71 -136 -42 -35 16 -55 57 -55 110 1 76 40 117 113 118 28
0 44 -7 61 -25z m127 -10 c12 -19 25 -35 29 -35 4 0 17 16 29 35 15 26 27 35
46 35 29 0 29 0 -17 -67 -15 -23 -28 -45 -28 -50 0 -5 16 -32 35 -60 19 -29
35 -55 35 -58 0 -3 -11 -5 -25 -5 -18 0 -30 10 -47 40 -13 22 -25 40 -28 40
-3 0 -15 -18 -28 -40 -17 -30 -29 -40 -47 -40 -14 0 -25 2 -25 5 0 3 16 29 35
58 19 28 35 55 35 60 0 5 -13 27 -28 50 -46 67 -46 67 -17 67 19 0 31 -9 46
-35z m1374 29 c30 -12 45 -60 45 -149 0 -84 0 -85 -25 -85 -14 0 -25 5 -25 10
0 7 -6 7 -19 0 -53 -28 -131 5 -131 56 0 42 32 67 93 72 45 3 57 8 57 21 0 39
-64 57 -90 26 -16 -19 -50 -20 -50 -1 0 39 91 70 145 50z"/>
<path d="M1128 8709 c-27 -15 -26 -124 1 -139 45 -23 71 3 71 70 0 67 -29 95
-72 69z"/>
<path d="M1887 8702 c-24 -26 -23 -104 1 -125 43 -39 72 -13 72 65 0 46 -4 59
-19 68 -27 14 -35 13 -54 -8z"/>
<path d="M3633 8810 c-85 -51 -81 -179 6 -225 116 -60 239 71 171 182 -37 61
-116 81 -177 43z m82 -41 c4 -5 -1 -19 -10 -29 -16 -18 -15 -19 27 -22 30 -2
43 -7 43 -18 0 -11 -13 -16 -43 -18 -43 -3 -44 -4 -26 -23 14 -15 15 -22 6
-31 -10 -10 -22 -3 -54 30 l-42 42 39 40 c41 42 50 46 60 29z"/>
<path d="M4103 8810 c-85 -51 -81 -179 6 -225 116 -60 239 71 171 182 -37 61
-116 81 -177 43z m112 -70 l39 -40 -42 -42 c-32 -33 -44 -40 -54 -30 -9 9 -8
16 6 31 18 19 17 20 -26 23 -30 2 -43 7 -43 18 0 11 13 16 43 18 42 3 43 4 27
22 -16 17 -14 40 4 40 4 0 25 -18 46 -40z"/>
<path d="M185 8776 c-45 -45 -45 -147 0 -192 29 -29 55 -30 86 -5 22 17 24 27
24 101 0 74 -2 84 -24 101 -31 25 -57 24 -86 -5z"/>
<path d="M2740 8774 c-6 -14 -10 -58 -10 -97 0 -79 16 -117 50 -117 30 0 40
31 40 120 0 45 -5 90 -10 101 -16 29 -58 25 -70 -7z"/>
<path d="M3247 8782 c-38 -41 -5 -122 42 -107 31 10 42 37 31 76 -15 50 -44
63 -73 31z"/>
<path d="M1520 8700 c-24 -24 -27 -86 -4 -118 17 -24 56 -29 72 -9 28 34 26
101 -4 131 -21 21 -40 20 -64 -4z"/>
<path d="M2148 8709 c-35 -20 -21 -39 28 -39 46 0 46 0 32 23 -18 26 -36 31
-60 16z"/>
<path d="M10212 7868 c-7 -7 -12 -38 -12 -70 0 -46 4 -59 19 -68 54 -28 91 0
91 70 0 31 -6 54 -16 64 -18 19 -65 21 -82 4z"/>
<path d="M410 7840 l0 -120 39 0 c28 0 49 7 68 24 26 22 28 30 28 96 0 66 -2
74 -28 96 -19 17 -40 24 -68 24 l-39 0 0 -120z"/>
<path d="M5148 7947 c-57 -45 -46 -207 15 -222 71 -18 112 24 112 115 0 75
-25 114 -76 117 -19 2 -42 -3 -51 -10z"/>
<path d="M6735 7935 c-22 -21 -25 -33 -25 -95 0 -62 3 -74 25 -95 24 -24 57
-31 90 -19 59 23 59 205 0 228 -33 12 -66 5 -90 -19z"/>
<path d="M707 7862 c-22 -24 -23 -105 -1 -126 23 -24 70 -20 88 6 37 52 9 138
-43 138 -15 0 -35 -8 -44 -18z"/>
<path d="M2416 7864 c-31 -31 -20 -44 39 -44 59 0 63 4 39 38 -18 26 -56 29
-78 6z"/>
<path d="M2663 7873 c-21 -8 -35 -77 -22 -109 12 -33 26 -44 56 -44 35 0 53
26 53 80 0 67 -34 95 -87 73z"/>
<path d="M3946 7864 c-31 -31 -20 -44 39 -44 59 0 63 4 39 38 -18 26 -56 29
-78 6z"/>
<path d="M5686 7777 c-28 -21 -17 -51 20 -55 35 -3 64 18 64 49 0 15 -7 19
-33 19 -18 0 -41 -6 -51 -13z"/>
<path d="M8446 7864 c-31 -31 -20 -44 39 -44 59 0 63 4 39 38 -18 26 -56 29
-78 6z"/>
<path d="M9966 7777 c-26 -19 -17 -51 16 -55 39 -5 68 14 68 43 0 22 -5 25
-33 25 -18 0 -41 -6 -51 -13z"/>
<path d="M80 5410 l0 -710 770 0 770 0 0 710 0 710 -770 0 -770 0 0 -710z
m602 -301 c27 -35 16 -68 -43 -137 l-49 -57 60 -3 c44 -2 60 -7 60 -17 0 -12
-18 -15 -90 -15 -49 0 -90 4 -90 9 0 6 25 38 56 73 65 74 78 101 63 129 -14
27 -61 22 -74 -8 -11 -27 -45 -31 -45 -6 0 9 10 27 22 40 32 34 103 29 130 -8z"/>
<path d="M1640 5410 l0 -710 765 0 765 0 0 710 0 710 -765 0 -765 0 0 -710z
m590 -292 c24 -26 26 -55 3 -80 -15 -17 -15 -19 0 -36 23 -25 21 -74 -3 -100
-30 -32 -93 -30 -125 3 -14 13 -25 29 -25 35 0 18 39 11 50 -10 20 -38 80 -19
80 25 0 27 -18 45 -47 45 -34 0 -28 24 10 35 36 11 48 44 23 64 -20 16 -66 6
-66 -14 0 -8 -9 -15 -20 -15 -11 0 -20 7 -20 15 0 52 100 75 140 33z"/>
<path d="M3190 5410 l0 -710 770 0 770 0 0 710 0 710 -770 0 -770 0 0 -710z
m600 -355 c0 -69 3 -85 15 -85 8 0 15 -7 15 -15 0 -8 -7 -15 -15 -15 -10 0
-15 -10 -15 -30 0 -23 -4 -30 -20 -30 -16 0 -20 7 -20 30 l0 30 -60 0 c-36 0
-60 4 -60 11 0 6 26 51 58 100 44 68 62 89 80 89 21 0 22 -4 22 -85z"/>
<path d="M3712 5028 l-32 -53 31 -3 c17 -2 33 -1 36 1 2 3 3 28 1 56 l-3 52
-33 -53z"/>
<path d="M4750 5410 l0 -710 765 0 765 0 0 710 0 710 -765 0 -765 0 0 -710z
m610 -285 c0 -11 -12 -15 -49 -15 -47 0 -49 -1 -53 -30 -4 -28 -3 -30 31 -30
50 0 81 -32 81 -84 0 -53 -30 -86 -80 -86 -41 0 -75 20 -83 50 -7 27 28 27 43
0 12 -22 49 -27 68 -8 7 7 12 27 12 45 0 41 -38 65 -70 45 -35 -21 -47 -6 -43
51 7 79 5 77 78 77 51 0 65 -3 65 -15z"/>
<path d="M6300 5410 l0 -710 770 0 770 0 0 710 0 710 -770 0 -770 0 0 -710z
m590 -285 c0 -8 -8 -15 -19 -15 -22 0 -71 -37 -71 -53 0 -8 13 -11 39 -9 53 5
81 -22 81 -80 0 -56 -30 -88 -81 -88 -29 0 -42 6 -59 28 -19 23 -21 37 -18
101 3 68 6 75 36 102 36 32 92 41 92 14z"/>
<path d="M6811 5006 c-17 -20 -10 -77 12 -90 36 -23 75 31 53 75 -14 28 -48
36 -65 15z"/>
<path d="M7860 5410 l0 -710 765 0 765 0 0 710 0 710 -765 0 -765 0 0 -710z
m620 -277 c0 -5 -23 -63 -52 -130 -39 -92 -57 -123 -70 -123 -10 0 -18 4 -18
9 0 5 22 57 50 115 l49 106 -69 0 c-56 0 -70 3 -70 15 0 12 17 15 90 15 50 0
90 -3 90 -7z"/>
<path d="M9410 5410 l0 -710 770 0 770 0 0 710 0 710 -770 0 -770 0 0 -710z
m592 -287 c25 -30 29 -54 13 -80 -14 -21 -14 -26 0 -45 37 -54 0 -118 -67
-118 -72 0 -112 70 -68 117 17 18 17 23 5 33 -21 18 -18 67 5 90 26 26 91 27
112 3z"/>
<path d="M9923 5103 c-18 -7 -16 -48 2 -63 17 -14 51 -5 59 16 14 35 -23 63
-61 47z"/>
<path d="M9908 4974 c-14 -31 -1 -57 31 -62 28 -4 51 14 51 42 0 50 -62 65
-82 20z"/>
<path d="M80 3970 l0 -710 770 0 770 0 0 710 0 710 -770 0 -770 0 0 -710z
m589 -294 c28 -30 37 -95 22 -152 -13 -50 -37 -73 -85 -81 -29 -4 -36 -2 -36
11 0 9 8 16 18 16 24 0 58 26 64 48 5 17 1 19 -37 15 -37 -5 -44 -2 -63 22
-28 35 -28 85 -1 119 28 35 86 36 118 2z"/>
<path d="M582 3658 c-17 -17 -15 -73 3 -88 22 -19 64 -4 71 25 12 49 -42 95
-74 63z"/>
<path d="M1640 3970 l0 -710 765 0 765 0 0 710 0 710 -765 0 -765 0 0 -710z
m360 -400 c0 -123 -1 -130 -20 -130 -19 0 -20 7 -20 106 0 81 -3 105 -12 101
-47 -19 -48 -19 -48 -1 0 12 14 25 38 36 64 28 62 31 62 -112z m229 111 c38
-38 38 -179 0 -220 -30 -32 -91 -29 -118 5 -17 22 -21 41 -21 104 0 98 20 130
81 130 25 0 46 -7 58 -19z"/>
<path d="M2142 3658 c-18 -18 -16 -162 3 -178 37 -31 75 14 75 90 0 76 -42
124 -78 88z"/>
<path d="M3190 3970 l0 -710 770 0 770 0 0 710 0 710 -770 0 -770 0 0 -710z
m370 -400 c0 -123 -1 -130 -20 -130 -19 0 -20 7 -20 106 0 115 4 110 -57 87
-7 -3 -13 2 -13 11 0 16 69 55 98 56 9 0 12 -33 12 -130z m200 0 c0 -123 -1
-130 -20 -130 -19 0 -20 7 -20 106 0 97 -1 106 -17 99 -42 -17 -53 -17 -53 -1
0 16 67 54 98 55 9 1 12 -31 12 -129z"/>
<path d="M4750 3970 l0 -710 765 0 765 0 0 710 0 710 -765 0 -765 0 0 -710z
m360 -400 c0 -123 -1 -130 -20 -130 -19 0 -20 7 -20 106 0 81 -3 105 -12 101
-47 -19 -48 -19 -48 -1 0 12 14 25 38 36 64 28 62 31 62 -112z m230 110 c39
-39 24 -86 -54 -167 l-40 -43 62 0 c48 0 62 -3 62 -15 0 -12 -16 -15 -85 -15
-61 0 -85 3 -85 13 0 6 27 43 60 81 61 71 73 103 45 126 -20 17 -62 5 -70 -20
-5 -17 -45 -30 -45 -15 0 14 31 64 42 68 32 13 89 6 108 -13z"/>
<path d="M6300 3970 l0 -710 770 0 770 0 0 710 0 710 -770 0 -770 0 0 -710z
m370 -400 c0 -123 -1 -130 -20 -130 -19 0 -20 7 -20 106 0 115 4 110 -57 87
-7 -3 -13 2 -13 11 0 16 69 55 98 56 9 0 12 -33 12 -130z m222 113 c22 -19 24
-76 4 -92 -13 -11 -12 -15 5 -32 45 -45 2 -119 -69 -119 -40 0 -82 28 -82 55
0 22 33 18 48 -6 15 -24 59 -23 75 3 18 28 -7 68 -43 68 -40 0 -39 23 3 35 27
8 32 15 32 40 0 25 -4 31 -27 33 -19 2 -31 -3 -40 -17 -13 -21 -48 -29 -48
-12 0 4 9 20 21 35 16 20 29 26 61 26 25 0 49 -7 60 -17z"/>
<path d="M7860 3970 l0 -710 765 0 765 0 0 710 0 710 -765 0 -765 0 0 -710z
m360 -400 c0 -123 -1 -130 -20 -130 -19 0 -20 7 -20 106 0 81 -3 105 -12 101
-47 -19 -48 -19 -48 -1 0 12 14 25 38 36 64 28 62 31 62 -112z m230 45 c0 -78
2 -85 20 -85 11 0 20 -7 20 -15 0 -8 -9 -15 -20 -15 -16 0 -20 -7 -20 -30 0
-23 -4 -30 -20 -30 -16 0 -20 7 -20 30 0 30 -1 30 -55 30 -42 0 -55 4 -55 15
0 8 25 53 55 100 39 60 61 85 75 85 18 0 20 -7 20 -85z"/>
<path d="M8372 3580 l-32 -50 35 0 35 0 0 50 c0 28 -1 50 -2 50 -2 0 -18 -23
-36 -50z"/>
<path d="M9410 3970 l0 -710 770 0 770 0 0 710 0 710 -770 0 -770 0 0 -710z
m370 -400 c0 -123 -1 -130 -20 -130 -19 0 -20 7 -20 106 0 115 4 110 -57 87
-7 -3 -13 2 -13 11 0 16 69 55 98 56 9 0 12 -33 12 -130z m250 116 c0 -11 -15
-16 -52 -18 -49 -3 -53 -5 -56 -30 -3 -26 -1 -28 36 -28 53 0 77 -27 77 -87 0
-55 -28 -83 -83 -83 -37 0 -82 31 -82 57 0 20 34 15 48 -7 15 -24 45 -26 66
-4 21 21 20 47 -3 75 -18 22 -22 23 -52 12 -20 -8 -37 -9 -42 -4 -5 5 -6 37
-2 70 l7 61 69 0 c54 0 69 -3 69 -14z"/>
<path d="M80 2530 l0 -710 770 0 770 0 0 710 0 710 -770 0 -770 0 0 -710z
m370 -400 c0 -123 -1 -130 -20 -130 -19 0 -20 7 -20 106 0 115 4 110 -57 87
-7 -3 -13 2 -13 11 0 16 69 55 98 56 9 0 12 -33 12 -130z m220 115 c0 -8 -8
-15 -19 -15 -22 0 -71 -37 -71 -53 0 -8 13 -11 39 -9 53 5 81 -22 81 -80 0
-56 -30 -88 -81 -88 -29 0 -42 6 -59 28 -19 23 -21 37 -18 101 3 68 6 75 36
102 36 32 92 41 92 14z"/>
<path d="M591 2126 c-17 -20 -10 -77 12 -90 36 -23 75 31 53 75 -14 28 -48 36
-65 15z"/>
<path d="M1640 2530 l0 -710 765 0 765 0 0 710 0 710 -765 0 -765 0 0 -710z
m360 -400 c0 -123 -1 -130 -20 -130 -19 0 -20 7 -20 106 0 81 -3 105 -12 101
-47 -19 -48 -19 -48 -1 0 12 14 25 38 36 64 28 62 31 62 -112z m260 123 c0 -5
-23 -63 -52 -130 -39 -92 -57 -123 -70 -123 -10 0 -18 4 -18 9 0 5 22 57 50
115 l49 106 -69 0 c-56 0 -70 3 -70 15 0 12 17 15 90 15 50 0 90 -3 90 -7z"/>
<path d="M3190 2530 l0 -710 770 0 770 0 0 710 0 710 -770 0 -770 0 0 -710z
m370 -400 c0 -123 -1 -130 -20 -130 -19 0 -20 7 -20 106 0 115 4 110 -57 87
-7 -3 -13 2 -13 11 0 16 69 55 98 56 9 0 12 -33 12 -130z m222 113 c25 -30 29
-54 13 -80 -14 -21 -14 -26 0 -45 37 -54 0 -118 -67 -118 -72 0 -112 70 -68
117 17 18 17 23 5 33 -21 18 -18 67 5 90 26 26 91 27 112 3z"/>
<path d="M3703 2223 c-18 -7 -16 -48 2 -63 17 -14 51 -5 59 16 14 35 -23 63
-61 47z"/>
<path d="M3688 2094 c-14 -31 -1 -57 31 -62 28 -4 51 14 51 42 0 50 -62 65
-82 20z"/>
<path d="M4750 2530 l0 -710 765 0 765 0 0 710 0 710 -765 0 -765 0 0 -710z
m360 -400 c0 -123 -1 -130 -20 -130 -19 0 -20 7 -20 106 0 81 -3 105 -12 101
-47 -19 -48 -19 -48 -1 0 12 14 25 38 36 64 28 62 31 62 -112z m227 104 c23
-23 25 -31 21 -101 -3 -70 -6 -77 -36 -104 -36 -32 -92 -41 -92 -14 0 8 8 15
19 15 22 0 71 37 71 53 0 8 -13 11 -39 9 -54 -5 -81 22 -81 83 0 57 25 85 75
85 25 0 44 -8 62 -26z"/>
<path d="M5243 2204 c-15 -24 -15 -29 -2 -53 38 -67 105 -9 69 60 -15 27 -46
24 -67 -7z"/>
<path d="M6300 2530 l0 -710 770 0 770 0 0 710 0 710 -770 0 -770 0 0 -710z
m392 -287 c11 -10 18 -30 18 -53 0 -30 -9 -48 -52 -96 l-51 -59 61 -3 c46 -2
62 -7 62 -17 0 -12 -18 -15 -90 -15 -60 0 -90 4 -90 11 0 6 26 41 58 78 67 75
73 87 61 119 -12 31 -60 27 -74 -5 -11 -27 -45 -31 -45 -6 0 9 10 27 22 40 26
28 92 32 120 6z m204 -4 c16 -17 19 -37 19 -109 0 -72 -3 -92 -19 -109 -21
-23 -74 -28 -106 -11 -52 28 -54 198 -3 238 27 20 87 15 109 -9z"/>
<path d="M6811 2221 c-16 -11 -26 -95 -17 -145 5 -28 13 -37 33 -42 38 -10 53
17 53 94 0 90 -23 122 -69 93z"/>
<path d="M7860 2530 l0 -710 765 0 765 0 0 710 0 710 -765 0 -765 0 0 -710z
m390 -290 c36 -36 20 -88 -52 -166 l-41 -44 62 0 c48 0 61 -3 61 -15 0 -12
-16 -15 -85 -15 -68 0 -85 3 -85 15 0 8 27 44 60 81 60 66 72 98 48 122 -21
21 -57 14 -70 -13 -12 -27 -48 -34 -48 -10 0 9 11 27 25 40 31 32 96 34 125 5z
m170 -110 c0 -123 -1 -130 -20 -130 -19 0 -20 7 -20 105 l0 105 -26 -10 c-33
-13 -34 -13 -34 8 0 16 56 49 88 51 9 1 12 -31 12 -129z"/>
<path d="M9410 2530 l0 -710 770 0 770 0 0 710 0 710 -770 0 -770 0 0 -710z
m392 -287 c11 -10 18 -30 18 -53 0 -30 -9 -48 -52 -96 l-51 -59 61 -3 c46 -2
62 -7 62 -17 0 -12 -18 -15 -90 -15 -60 0 -90 4 -90 11 0 6 26 41 58 78 67 75
73 87 61 119 -12 31 -60 27 -74 -5 -11 -27 -45 -31 -45 -6 0 9 10 27 22 40 26
28 92 32 120 6z m210 -14 c27 -35 16 -68 -43 -137 l-49 -57 60 -3 c44 -2 60
-7 60 -17 0 -12 -18 -15 -90 -15 -49 0 -90 4 -90 9 0 6 25 38 56 73 65 74 78
101 63 129 -14 27 -61 22 -74 -8 -11 -27 -45 -31 -45 -6 0 9 10 27 22 40 32
34 103 29 130 -8z"/>
<path d="M80 1090 l0 -710 770 0 770 0 0 710 0 710 -770 0 -770 0 0 -710z
m392 -287 c11 -10 18 -30 18 -53 0 -30 -9 -48 -52 -96 l-51 -59 61 -3 c46 -2
62 -7 62 -17 0 -12 -18 -15 -90 -15 -60 0 -90 4 -90 11 0 6 26 41 58 78 67 75
73 87 61 119 -12 31 -60 27 -74 -5 -11 -27 -45 -31 -45 -6 0 9 10 27 22 40 26
28 92 32 120 6z m200 0 c22 -19 24 -76 4 -92 -13 -11 -12 -15 5 -32 45 -45 2
-119 -69 -119 -40 0 -82 28 -82 55 0 22 33 18 48 -6 15 -24 59 -23 75 3 18 28
-7 68 -43 68 -40 0 -39 23 3 35 27 8 32 15 32 40 0 25 -4 31 -27 33 -19 2 -31
-3 -40 -17 -13 -21 -48 -29 -48 -12 0 4 9 20 21 35 16 20 29 26 61 26 25 0 49
-7 60 -17z"/>
<path d="M1640 1090 l0 -710 765 0 765 0 0 710 0 710 -765 0 -765 0 0 -710z
m390 -290 c36 -36 20 -88 -52 -166 l-41 -44 62 0 c48 0 61 -3 61 -15 0 -12
-16 -15 -85 -15 -68 0 -85 3 -85 15 0 8 27 44 60 81 60 66 72 98 48 122 -21
21 -57 14 -70 -13 -12 -27 -48 -34 -48 -10 0 9 11 27 25 40 31 32 96 34 125 5z
m200 -65 c0 -78 2 -85 20 -85 11 0 20 -7 20 -15 0 -8 -9 -15 -20 -15 -16 0
-20 -7 -20 -30 0 -23 -4 -30 -20 -30 -16 0 -20 7 -20 30 0 30 -1 30 -55 30
-42 0 -55 4 -55 15 0 8 25 53 55 100 39 60 61 85 75 85 18 0 20 -7 20 -85z"/>
<path d="M2152 700 l-32 -50 35 0 35 0 0 50 c0 28 -1 50 -2 50 -2 0 -18 -23
-36 -50z"/>
<path d="M3190 1090 l0 -710 770 0 770 0 0 710 0 710 -770 0 -770 0 0 -710z
m392 -287 c11 -10 18 -30 18 -53 0 -30 -9 -48 -52 -96 l-51 -59 61 -3 c46 -2
62 -7 62 -17 0 -12 -18 -15 -90 -15 -60 0 -90 4 -90 11 0 6 26 41 58 78 67 75
73 87 61 119 -12 31 -60 27 -74 -5 -11 -27 -45 -31 -45 -6 0 9 10 27 22 40 26
28 92 32 120 6z m228 3 c0 -11 -15 -16 -52 -18 -49 -3 -53 -5 -56 -30 -3 -26
-1 -28 36 -28 53 0 77 -27 77 -87 0 -55 -28 -83 -83 -83 -37 0 -82 31 -82 57
0 20 34 15 48 -7 15 -24 45 -26 66 -4 21 21 20 47 -3 75 -18 22 -22 23 -52 12
-20 -8 -37 -9 -42 -4 -5 5 -6 37 -2 70 l7 61 69 0 c54 0 69 -3 69 -14z"/>
<path d="M4750 1090 l0 -710 765 0 765 0 0 710 0 710 -765 0 -765 0 0 -710z
m390 -290 c36 -36 20 -88 -52 -166 l-41 -44 62 0 c48 0 61 -3 61 -15 0 -12
-16 -15 -85 -15 -68 0 -85 3 -85 15 0 8 27 44 60 81 60 66 72 98 48 122 -21
21 -57 14 -70 -13 -12 -27 -48 -34 -48 -10 0 9 11 27 25 40 31 32 96 34 125 5z
m190 7 c0 -7 -15 -18 -33 -25 -19 -7 -39 -23 -45 -36 -10 -23 -9 -23 32 -19
38 5 45 2 64 -22 47 -60 11 -145 -60 -145 -58 1 -88 40 -88 113 0 63 18 106
54 128 36 22 76 25 76 6z"/>
<path d="M5258 689 c-40 -23 -6 -106 39 -97 25 5 39 51 25 83 -12 26 -35 31
-64 14z"/>
<path d="M6300 1090 l0 -710 770 0 770 0 0 710 0 710 -770 0 -770 0 0 -710z
m392 -287 c11 -10 18 -30 18 -53 0 -30 -9 -48 -52 -96 l-51 -59 61 -3 c46 -2
62 -7 62 -17 0 -12 -18 -15 -90 -15 -60 0 -90 4 -90 11 0 6 26 41 58 78 67 75
73 87 61 119 -12 31 -60 27 -74 -5 -11 -27 -45 -31 -45 -6 0 9 10 27 22 40 26
28 92 32 120 6z m238 12 c0 -2 -24 -60 -54 -127 -42 -94 -59 -124 -75 -126
-12 -2 -21 -1 -21 1 0 3 23 53 50 112 28 59 50 109 50 111 0 2 -29 4 -65 4
-51 0 -65 3 -65 15 0 12 17 15 90 15 50 0 90 -2 90 -5z"/>
<path d="M7860 1090 l0 -710 765 0 765 0 0 710 0 710 -765 0 -765 0 0 -710z
m390 -290 c36 -36 20 -88 -52 -166 l-41 -44 62 0 c48 0 61 -3 61 -15 0 -12
-16 -15 -85 -15 -68 0 -85 3 -85 15 0 8 27 44 60 81 60 66 72 98 48 122 -21
21 -57 14 -70 -13 -12 -27 -48 -34 -48 -10 0 9 11 27 25 40 31 32 96 34 125 5z
m200 0 c23 -23 26 -58 6 -85 -12 -17 -11 -22 6 -45 23 -32 16 -73 -15 -95 -31
-22 -93 -19 -117 5 -24 24 -27 82 -5 100 13 11 13 15 0 33 -20 29 -19 49 6 81
26 33 88 37 119 6z"/>
<path d="M8360 775 c-14 -17 -5 -51 16 -59 22 -8 54 11 54 32 0 38 -46 56 -70
27z"/>
<path d="M8362 668 c-17 -17 -15 -65 4 -72 29 -11 53 -6 64 13 14 27 13 37 -6
55 -18 19 -45 21 -62 4z"/>
<path d="M9410 1090 l0 -710 770 0 770 0 0 710 0 710 -770 0 -770 0 0 -710z
m392 -287 c11 -10 18 -30 18 -53 0 -30 -9 -48 -52 -96 l-51 -59 61 -3 c46 -2
62 -7 62 -17 0 -12 -18 -15 -90 -15 -60 0 -90 4 -90 11 0 6 26 41 58 78 67 75
73 87 61 119 -12 31 -60 27 -74 -5 -11 -27 -45 -31 -45 -6 0 9 10 27 22 40 26
28 92 32 120 6z m197 -7 c28 -30 37 -95 22 -152 -13 -50 -37 -73 -85 -81 -29
-4 -36 -2 -36 11 0 9 8 16 18 16 24 0 58 26 64 48 5 17 1 19 -37 15 -37 -5
-44 -2 -63 22 -28 35 -28 85 -1 119 28 35 86 36 118 2z"/>
<path d="M9912 778 c-17 -17 -15 -73 3 -88 22 -19 64 -4 71 25 12 49 -42 95
-74 63z"/>
<path d="M80 180 l0 -180 770 0 770 0 0 180 0 180 -770 0 -770 0 0 -180z"/>
<path d="M1640 180 l0 -180 765 0 765 0 0 180 0 180 -765 0 -765 0 0 -180z"/>
</g>
</svg>
